<?xml version="1.0" encoding="utf-8"?>
<!-- Generator: Adobe Illustrator 26.4.1, SVG Export Plug-In . SVG Version: 6.00 Build 0)  -->
<svg version="1.1" id="Layer_2_00000089543012886286570030000003694283543746428563_"
	 xmlns="http://www.w3.org/2000/svg" xmlns:xlink="http://www.w3.org/1999/xlink" x="0px" y="0px" viewBox="0 0 604.4 60.2"
	 style="enable-background:new 0 0 604.4 60.2;" xml:space="preserve">
<style type="text/css">
	.st0{opacity:0.14;}
	.st1{fill:#515251;}
	.st2{opacity:0.14;fill:#515251;enable-background:new    ;}
</style>
<g class="st0">
	<path class="st1" d="M604.4,30.5c-26.2,9.6-52.5,19.2-78.7,28.8c-0.8-3.4-1.4-6.6-2.2-9.7c-1.3-4.7-3.7-7.7-6.2-10.3
		c-2.9-3-5.8-6-9-9.3c0.9-0.9,1.7-1.8,2.5-2.6c3-3.2,6.1-6.2,9-9.6c3.4-4.1,4.7-10.3,5.7-17.1c26.4,9.7,52.7,19.3,79,28.9
		C604.4,30,604.4,30.2,604.4,30.5z"/>
	<path class="st1" d="M478.1,30.1h0.1H478.1z"/>
</g>
<path class="st2" d="M518.4,60.2c-10.5-7.8-20.7-15.5-31.1-23.3H417V23.3h70.2c10.4-7.8,20.6-15.4,31.1-23.3
	c-1.8,7.3-4,13.2-7.9,16.8c-4.3,4-8.7,7.9-13,11.9c-0.4,0.4-0.9,0.8-1.5,1.4c4.7,4.3,9.2,8.5,13.7,12.5
	C513.9,46.3,516.4,52.3,518.4,60.2z"/>
<path class="st2" d="M478.1,30.1h0.1H478.1z"/>
<path class="st2" d="M60.1,43.1l-1.4-1.4v-4.8V23.3V3.9H46.2l-4.5,4.5v14.9H29c-2.6-4.9-7.7-8.3-13.6-8.3C6.9,15,0,21.9,0,30.4
	s6.9,15.4,15.4,15.4c6.2,0,11.5-3.6,14-8.9h12.4v14.6L47,57h70.8l4.6-4.5v-9.4H60.1z M15.4,35.8c-3,0-5.4-2.4-5.4-5.4
	s2.4-5.4,5.4-5.4s5.4,2.4,5.4,5.4S18.3,35.8,15.4,35.8z"/>
<path class="st2" d="M181.2,3.9h-18.5l-15.3,19.4l-0.7,0.9l-9.9,12.5l-0.2,0.2L120.8,57h19.9L157,36.9l0.2-0.2l2.1-2.5l0.1-0.1
	l0.1-0.1l7.9-9.8l5.3-6.6v-0.1h19.1C191.7,17.5,181.2,3.9,181.2,3.9z M208,39.3l-2.1-2.6l-8.6-11l-1.2-1.5l-2.1-2.7h-16.4l-2,2.4
	l0.2,0.3l10,12.5h-22.6l-11.5,13.7h45l5.2,6.6h19.9C221.8,57,208,39.3,208,39.3z"/>
<path class="st2" d="M277.6,3.9l-19.2,20.3l-11.8,12.5l-6.2,6.6h-15.9V57h24.2L268,36.7l11.9-12.5l6.3-6.6H302V3.9H277.6L277.6,3.9z
	 M288.5,21.4l-0.1,0.1l-2.4,2.7l-0.3,0.3V57h16.2V21.4H288.5L288.5,21.4z M224.4,3.9v35.5h13.4l0.1-0.1l2.4-2.6l0.4-0.4V3.9H224.4z"
	/>
<path class="st2" d="M383.8,3.9h-70.3L309,8.4v9.3l79.1,0.1V7.6L383.8,3.9z M327.4,43.1l-1.4-1.4V21.6h-17.1v29.9l5.3,5.5h70.9
	l4.5-4.5v-9.4H327.4L327.4,43.1z"/>
<path class="st2" d="M467.6,3.9h-69.1L394,8.4v9.3l78,0.1V7.6L467.6,3.9z M412.5,43.1l-1.4-1.4V21.6H394v29.9l5.3,5.5h70.9l4.5-4.5
	v-9.4H412.5z"/>
</svg>
