<?xml version="1.0" encoding="UTF-8"?>
<svg id="Layer_2" data-name="Layer 2" xmlns="http://www.w3.org/2000/svg" viewBox="0 0 433.62 53.35">
  <defs>
    <style>
      .cls-1 {
        fill: #fff;
        stroke: #fff;
        stroke-miterlimit: 10;
        stroke-width: .25px;
      }
    </style>
  </defs>
  <g id="Layer_2-2" data-name="Layer 2">
    <g>
      <path class="cls-1" d="M80.91,39.34v9.41l-4.55,4.48H5.43L.12,47.69V4.6L4.67,.12h12.44l.07,37.85,1.37,1.37h62.35Z"/>
      <path class="cls-1" d="M131.21,13.78l-32.01,39.45h-19.88L121.27,.12h18.51l10.47,13.65h-19.04Zm49.23,39.45h-19.88l-5.23-6.6h-45.06l11.53-13.73h22.61l-10.24-12.82,2.05-2.43h16.46l27.76,35.58Z"/>
      <path class="cls-1" d="M198.95,39.5h-15.93v13.73h24.2L244.69,13.78h15.85V.12h-24.2l-37.4,39.37Zm48.17-21.85l-2.81,3.11V53.22h16.23V17.65h-13.42ZM183.02,.12V35.7h13.43l2.81-3.11V.12h-16.23Z"/>
      <path class="cls-1" d="M346.79,14.01l-79.2-.07V4.6l4.55-4.48h70.32l4.32,3.72V14.01Zm1.59,25.34v9.41l-4.55,4.48h-70.93l-5.31-5.54V17.88h17.07v20.1l1.36,1.37h62.36Z"/>
      <path class="cls-1" d="M430.76,14.01l-78.06-.07V4.6l4.55-4.48h69.11l4.4,3.72V14.01Zm2.73,25.34v9.41l-4.55,4.48h-70.93l-5.31-5.54V17.88h17.07v20.1l1.36,1.37h62.36Zm-57.73-5.99v-13.35h43.32v13.35h-43.32Z"/>
    </g>
  </g>
</svg>