<?xml version="1.0" encoding="utf-8"?>
<!-- Generator: Adobe Illustrator 26.4.1, SVG Export Plug-In . SVG Version: 6.00 Build 0)  -->
<svg version="1.1" id="Layer_2_00000041265999894474590370000015644510212791270071_"
	 xmlns="http://www.w3.org/2000/svg" xmlns:xlink="http://www.w3.org/1999/xlink" x="0px" y="0px" viewBox="0 0 77.5 87.2"
	 style="enable-background:new 0 0 77.5 87.2;" xml:space="preserve">
<style type="text/css">
	.st0{fill:#FFFFFF;}
	.st1{fill:#FFFFFF;enable-background:new    ;}
</style>
<g>
	<path class="st0" d="M339.2,37.2C313,46.8,286.7,56.4,260.5,66c-0.8-3.4-1.4-6.6-2.2-9.7c-1.3-4.7-3.7-7.7-6.2-10.3
		c-2.9-3-5.8-6-9-9.3c0.9-0.9,1.7-1.8,2.5-2.6c3-3.2,6.1-6.2,9-9.6c3.4-4.1,4.7-10.3,5.7-17.1c26.4,9.7,52.7,19.3,79,28.9
		C339.2,36.7,339.2,36.9,339.2,37.2z"/>
	<path class="st0" d="M212.9,36.8h0.1H212.9z"/>
</g>
<path class="st1" d="M253.2,66.9c-10.5-7.8-20.7-15.5-31.1-23.3h-70.3V30H222c10.4-7.8,20.6-15.4,31.1-23.3
	c-1.8,7.3-4,13.2-7.9,16.8c-4.3,4-8.7,7.9-13,11.9c-0.4,0.4-0.9,0.8-1.5,1.4c4.7,4.3,9.2,8.5,13.7,12.5
	C248.7,53,251.2,59,253.2,66.9z"/>
<path class="st1" d="M212.9,36.8h0.1H212.9z"/>
<path class="st1" d="M-205.1,49.8l-1.4-1.4v-4.8V30V10.6H-219l-4.5,4.5V30h-12.7c-2.6-4.9-7.7-8.3-13.6-8.3
	c-8.5,0-15.4,6.9-15.4,15.4s6.9,15.4,15.4,15.4c6.2,0,11.5-3.6,14-8.9h12.4v14.6l5.2,5.5h70.8l4.6-4.5v-9.4H-205.1z M-249.8,42.5
	c-3,0-5.4-2.4-5.4-5.4s2.4-5.4,5.4-5.4s5.4,2.4,5.4,5.4C-244.4,40.1-246.9,42.5-249.8,42.5z"/>
<path class="st1" d="M-84,10.6h-18.5L-117.8,30l-0.7,0.9l-9.9,12.5l-0.2,0.2l-15.8,20.1h19.9l16.3-20.1l0.2-0.2l2.1-2.5l0.1-0.1
	l0.1-0.1l7.9-9.8l5.3-6.6v-0.1h19.1C-73.5,24.2-84,10.6-84,10.6z M-57.2,46l-2.1-2.6l-8.6-11l-1.2-1.5l-2.1-2.7h-16.4l-2,2.4
	l0.2,0.3l10,12.5H-102l-11.5,13.7h45l5.2,6.6h19.9C-43.4,63.7-57.2,46-57.2,46z"/>
<path class="st1" d="M12.4,10.6L-6.8,30.9l-11.8,12.5l-6.2,6.6h-15.9v13.7h24.2L2.8,43.4l11.9-12.5l6.3-6.6h15.8V10.6H12.4
	L12.4,10.6z M23.3,28.1l-0.1,0.1l-2.4,2.7l-0.3,0.3v32.5h16.2V28.1H23.3L23.3,28.1z M-40.8,10.6v35.5h13.4l0.1-0.1l2.4-2.6l0.4-0.4
	V10.6H-40.8z"/>
<path class="st1" d="M118.6,10.6H48.3l-4.5,4.5v9.3l79.1,0.1V14.3L118.6,10.6z M62.2,49.8l-1.4-1.4V28.3H43.7v29.9l5.3,5.5h70.9
	l4.5-4.5v-9.4H62.2L62.2,49.8z"/>
<path class="st1" d="M202.4,10.6h-69.1l-4.5,4.5v9.3l78,0.1V14.3L202.4,10.6z M147.3,49.8l-1.4-1.4V28.3h-17.1v29.9l5.3,5.5H205
	l4.5-4.5v-9.4H147.3z"/>
</svg>
