<?xml version="1.0" encoding="utf-8"?>
<!-- Generator: Adobe Illustrator 26.4.1, SVG Export Plug-In . SVG Version: 6.00 Build 0)  -->
<svg version="1.1" id="Layer_2_00000011007069031617521760000009719840333539264166_"
	 xmlns="http://www.w3.org/2000/svg" xmlns:xlink="http://www.w3.org/1999/xlink" x="0px" y="0px" viewBox="0 0 433.4 68.9"
	 style="enable-background:new 0 0 433.4 68.9;" xml:space="preserve">
<style type="text/css">
	.st0{opacity:0.14;enable-background:new    ;}
	.st1{fill:#515251;}
</style>
<g class="st0">
	<path class="st1" d="M81.1,47.1v9.4L76.5,61H5.7l-5.3-5.5V12.4l4.5-4.5h12.4l0.1,37.8l1.4,1.4H81.1z"/>
	<path class="st1" d="M131.3,21.6L99.4,61H79.5l41.9-53.1h18.5l10.5,13.6H131.3z M180.5,61h-19.9l-5.2-6.6h-45l11.5-13.7h22.6
		l-10.2-12.8l2-2.4h16.4L180.5,61z"/>
	<path class="st1" d="M199,47.3h-15.9V61h24.2l37.4-39.4h15.8V7.9h-24.2L199,47.3z M247.2,25.4l-2.8,3.1V61h16.2V25.4H247.2z
		 M183.1,7.9v35.5h13.4l2.8-3.1V7.9H183.1z"/>
	<path class="st1" d="M346.8,21.8l-79.1-0.1v-9.3l4.5-4.5h70.3l4.3,3.7V21.8z M348.3,47.1v9.4l-4.5,4.5h-70.9l-5.3-5.5V25.6h17.1
		v20.1l1.4,1.4H348.3z"/>
	<path class="st1" d="M430.7,21.8l-78-0.1v-9.3l4.5-4.5h69.1l4.4,3.7V21.8z M433.4,47.1v9.4l-4.5,4.5H358l-5.3-5.5V25.6h17.1v20.1
		l1.4,1.4H433.4z M375.7,41.1V27.8H419v13.3H375.7z"/>
</g>
</svg>
